<?xml version="1.0" encoding="UTF-8"?>
<svg xmlns="http://www.w3.org/2000/svg" width="1920" height="1080" viewBox="0 0 1920 1080" role="img" aria-label="Outer Banks lighthouse and dune shore">
  <defs>
    <linearGradient id="obxSky" x1="0" y1="0" x2="0" y2="1">
      <stop offset="0%" stop-color="#1a2a38"/>
      <stop offset="45%" stop-color="#4a6b7c"/>
      <stop offset="100%" stop-color="#c9d8e0"/>
    </linearGradient>
    <linearGradient id="obxSea" x1="0" y1="0" x2="0" y2="1">
      <stop offset="0%" stop-color="#2f6a74"/>
      <stop offset="100%" stop-color="#14343c"/>
    </linearGradient>
  </defs>
  <rect width="1920" height="1080" fill="url(#obxSky)"/>
  <rect y="560" width="1920" height="520" fill="url(#obxSea)"/>
  <path d="M0 620 Q480 540 960 610 T1920 590 L1920 720 L0 740 Z" fill="#d2be96"/>
  <path d="M0 740 Q600 680 1200 760 T1920 730 L1920 1080 L0 1080 Z" fill="#b8976e"/>
  <g fill="#eef2f0">
    <rect x="1380" y="280" width="56" height="300"/>
    <polygon points="1368,280 1408,210 1448,280" fill="#b84a3a"/>
    <rect x="1390" y="330" width="36" height="44" fill="#b84a3a"/>
    <rect x="1390" y="420" width="36" height="44" fill="#b84a3a"/>
    <rect x="1390" y="510" width="36" height="44" fill="#b84a3a"/>
  </g>
  <g fill="#152433" opacity="0.88">
    <rect x="260" y="470" width="260" height="160"/>
    <rect x="300" y="505" width="55" height="55" fill="#9fb6c3"/>
    <rect x="390" y="505" width="55" height="55" fill="#9fb6c3"/>
  </g>
  <path d="M0 900 Q500 860 1000 910 T1920 880" stroke="#e8f2dc" stroke-width="2" fill="none" opacity="0.2"/>
</svg>
