<?xml version="1.0" encoding="UTF-8"?>
<svg xmlns="http://www.w3.org/2000/svg" width="1920" height="1080" viewBox="0 0 1920 1080" role="img" aria-label="Atlantic horizon at dusk  O-sea-D demo home frame">
  <defs>
    <linearGradient id="homeSky" x1="0" y1="0" x2="0" y2="1">
      <stop offset="0%" stop-color="#0f1c28"/>
      <stop offset="38%" stop-color="#2a4558"/>
      <stop offset="72%" stop-color="#7a6a58"/>
      <stop offset="100%" stop-color="#c4a882"/>
    </linearGradient>
    <linearGradient id="homeSea" x1="0" y1="0" x2="0" y2="1">
      <stop offset="0%" stop-color="#1e4a52"/>
      <stop offset="100%" stop-color="#0c2428"/>
    </linearGradient>
    <radialGradient id="homeSun" cx="72%" cy="48%" r="18%">
      <stop offset="0%" stop-color="#f0c890" stop-opacity="0.85"/>
      <stop offset="55%" stop-color="#d4895a" stop-opacity="0.35"/>
      <stop offset="100%" stop-color="#d4895a" stop-opacity="0"/>
    </radialGradient>
  </defs>
  <rect width="1920" height="1080" fill="url(#homeSky)"/>
  <circle cx="1380" cy="520" r="340" fill="url(#homeSun)"/>
  <rect y="580" width="1920" height="500" fill="url(#homeSea)"/>
  <path d="M0 600 Q420 540 840 595 T1680 570 T1920 590 L1920 680 L0 700 Z" fill="#c4b090" opacity="0.55"/>
  <path d="M0 700 Q640 640 1200 720 T1920 690 L1920 1080 L0 1080 Z" fill="#8a7358" opacity="0.9"/>
  <g fill="#1a2830" opacity="0.92">
    <rect x="420" y="430" width="380" height="200"/>
    <polygon points="400,430 610,310 820,430" fill="#2f4a52"/>
    <rect x="480" y="480" width="64" height="72" fill="#7a9aaa"/>
    <rect x="580" y="480" width="64" height="72" fill="#7a9aaa"/>
    <rect x="680" y="480" width="64" height="72" fill="#7a9aaa"/>
  </g>
  <g fill="#152028" opacity="0.75">
    <rect x="920" y="500" width="160" height="120"/>
    <polygon points="910,500 1000,440 1090,500" fill="#3a555c"/>
  </g>
  <path d="M0 920 Q480 870 960 930 T1920 900" stroke="#e8f0e4" stroke-width="2" fill="none" opacity="0.22"/>
  <path d="M0 980 Q600 940 1200 990 T1920 960" stroke="#e8f0e4" stroke-width="1.5" fill="none" opacity="0.12"/>
</svg>
