<?xml version="1.0" encoding="UTF-8"?>
<svg xmlns="http://www.w3.org/2000/svg" width="1920" height="1080" viewBox="0 0 1920 1080" role="img" aria-label="Jersey Shore boardwalk at dusk">
  <defs>
    <linearGradient id="jsSky" x1="0" y1="0" x2="0" y2="1">
      <stop offset="0%" stop-color="#2a3348"/>
      <stop offset="40%" stop-color="#b06a58"/>
      <stop offset="70%" stop-color="#e0a878"/>
      <stop offset="100%" stop-color="#f0c9a0"/>
    </linearGradient>
    <linearGradient id="jsSea" x1="0" y1="0" x2="0" y2="1">
      <stop offset="0%" stop-color="#2a4f5c"/>
      <stop offset="100%" stop-color="#101e28"/>
    </linearGradient>
  </defs>
  <rect width="1920" height="1080" fill="url(#jsSky)"/>
  <circle cx="1180" cy="430" r="78" fill="#f2c28a" opacity="0.92"/>
  <rect y="540" width="1920" height="540" fill="url(#jsSea)"/>
  <path d="M0 560 Q520 510 1040 555 T1920 540 L1920 600 L0 610 Z" fill="#c9a888" opacity="0.8"/>
  <g opacity="0.9">
    <rect x="180" y="360" width="42" height="200" fill="#141c28"/>
    <rect x="250" y="300" width="50" height="260" fill="#141c28"/>
    <rect x="330" y="340" width="38" height="220" fill="#141c28"/>
    <rect x="400" y="280" width="55" height="280" fill="#1a2430"/>
    <rect x="490" y="350" width="36" height="210" fill="#141c28"/>
  </g>
  <rect x="140" y="560" width="420" height="28" fill="#5a4638"/>
  <g stroke="#3a2e24" stroke-width="6">
    <line x1="180" y1="588" x2="180" y2="720"/>
    <line x1="280" y1="588" x2="280" y2="740"/>
    <line x1="380" y1="588" x2="380" y2="730"/>
    <line x1="480" y1="588" x2="480" y2="750"/>
  </g>
  <path d="M0 720 Q400 680 800 730 T1920 710" stroke="#ddefcf" stroke-width="3" fill="none" opacity="0.22"/>
</svg>
