<?xml version="1.0" encoding="UTF-8"?>
<svg xmlns="http://www.w3.org/2000/svg" width="1600" height="1000" viewBox="0 0 1600 1000" role="img" aria-label="Morning Atlantic oceanfront">

  <defs>
    <linearGradient id="sky" x1="0" y1="0" x2="0" y2="1">
      <stop offset="0%" stop-color="#6a8fa8"/>
      <stop offset="45%" stop-color="#b7cbd8"/>
      <stop offset="100%" stop-color="#e6eef3"/>
    </linearGradient>
    <linearGradient id="sea" x1="0" y1="0" x2="0" y2="1">
      <stop offset="0%" stop-color="#2a6a78"/>
      <stop offset="100%" stop-color="#14343f"/>
    </linearGradient>
  </defs>
  <rect width="1600" height="1000" fill="url(#sky)"/>
  <ellipse cx="1280" cy="180" rx="90" ry="90" fill="#f4e2b0" opacity="0.55"/>
  <rect y="560" width="1600" height="440" fill="url(#sea)"/>
  <path d="M0 590 Q280 540 560 585 T1120 570 T1600 595 L1600 640 L0 655 Z" fill="#d8c4a4"/>
  <path d="M0 655 Q400 630 800 650 T1600 640 L1600 1000 L0 1000 Z" fill="#1a4652" opacity="0.35"/>
  <g fill="#152433">
    <rect x="980" y="300" width="340" height="280"/>
    <rect x="1010" y="250" width="280" height="60"/>
  </g>
  <g fill="#9fb6c3">
    <rect x="1010" y="330" width="70" height="90"/>
    <rect x="1115" y="330" width="70" height="90"/>
    <rect x="1220" y="330" width="70" height="90"/>
  </g>
  <rect x="1125" y="470" width="50" height="110" fill="#6d8592"/>
  <path d="M980 580 H1320 V600 H980 Z" fill="#2f5d62" opacity="0.5"/>

</svg>
